<?xml version="1.0" encoding="utf-8"?>
<!-- Generator: Adobe Illustrator 23.1.1, SVG Export Plug-In . SVG Version: 6.00 Build 0)  -->
<svg version="1.1" id="Capa_1" xmlns="http://www.w3.org/2000/svg" xmlns:xlink="http://www.w3.org/1999/xlink" x="0px" y="0px"
	 viewBox="0 0 326 212.6" style="enable-background:new 0 0 326 212.6;" xml:space="preserve">
<style type="text/css">
	.st0{fill:#CC3333;}
	.st1{fill:#FFFFFF;}
</style>
<polygon class="st0" points="77.2,69.9 77.2,90.2 138.6,90.2 177.6,129.3 206.4,129.3 147,69.9 "/>
<path class="st0" d="M183.9,46v0.1c0,13.1-10.7,23.8-23.8,23.8l59.4,59.4h29.3l-55.7-53.9c6.9-7.8,11.1-18,11.1-29.2V46
	c0-24.3-19.8-44.1-44.1-44.1H77.2v20.3h82.9C173.2,22.2,183.9,32.9,183.9,46"/>
<path class="st1" d="M174.6,46.2L174.6,46.2c0-8-6.5-14.4-14.4-14.4h-83v28.8h83C168.1,60.6,174.6,54.2,174.6,46.2"/>
<path class="st0" d="M36,189.5c1.9-1,3.5-2.5,4.8-4.5c1.3-2,1.9-4.6,1.9-7.9c0-4.8-1.6-8.7-4.7-11.5c-3.1-2.8-7.2-4.3-12.2-4.3H2.4
	v48.8h8.1v-17.6h13.7l11.1,17.6H45L32.5,191C33.7,190.6,34.9,190.1,36,189.5 M10.5,169.2h14.7c2.9,0,5.3,0.7,7,2.2
	c1.7,1.4,2.5,3.3,2.5,5.8c0,2-0.5,3.5-1.4,4.6c-1,1.1-2.2,1.9-3.7,2.3c-1.6,0.5-3.1,0.7-4.7,0.7H10.5V169.2z"/>
<polygon class="st0" points="48.8,210.2 85.5,210.2 85.5,202.3 56.9,202.3 56.9,189.7 82.4,189.7 82.4,181.8 56.9,181.8 56.9,169.2 
	85.5,169.2 85.5,161.4 48.8,161.4 "/>
<path class="st0" d="M132.5,175.6c-1.2-3-2.9-5.6-5-7.7c-2.1-2.1-4.5-3.7-7.2-4.9c-2.7-1.1-5.5-1.7-8.4-1.7H91v48.8h20.8
	c2.9,0,5.7-0.6,8.4-1.7c2.7-1.1,5.1-2.7,7.2-4.9c2.1-2.1,3.8-4.7,5-7.7c1.2-3,1.8-6.4,1.8-10.2C134.3,182,133.7,178.6,132.5,175.6
	 M99.1,169.2h12.5c3,0,5.6,0.7,7.7,2.2c2.2,1.5,3.9,3.5,5.1,6c1.2,2.5,1.8,5.3,1.8,8.4c0,3-0.6,5.8-1.8,8.3c-1.2,2.5-2.9,4.5-5.1,6
	c-2.1,1.5-4.7,2.2-7.7,2.2H99.1V169.2z"/>
<polygon class="st1" points="171.6,181.8 147.8,181.8 147.8,161.4 139.7,161.4 139.7,210.2 147.8,210.2 147.8,189.7 171.6,189.7 
	171.6,210.2 179.7,210.2 179.7,161.4 171.6,161.4 "/>
<path class="st1" d="M221.4,189.1c0,3.3-0.6,5.9-1.9,7.9c-1.2,2-2.8,3.4-4.7,4.4c-2,0.9-4.1,1.4-6.3,1.4c-2.2,0-4.3-0.5-6.3-1.4
	c-2-0.9-3.5-2.3-4.7-4.3c-1.2-2-1.8-4.6-1.8-7.9v-27.7h-8.1V189c0,4.3,0.9,8.1,2.7,11.4c1.8,3.3,4.3,5.9,7.4,7.7
	c3.1,1.8,6.8,2.7,10.8,2.7c4.1,0,7.7-0.9,10.9-2.8c3.2-1.8,5.7-4.4,7.4-7.7c1.8-3.3,2.7-7.1,2.7-11.3v-27.6h-8.1V189.1z"/>
<polygon class="st1" points="271.6,197 245.5,161.4 237.2,161.4 237.2,210.2 245.3,210.2 245.3,174.4 271.5,210.2 279.7,210.2 
	279.7,161.4 271.6,161.4 "/>
<polygon class="st1" points="283.4,161.4 283.4,169.2 299.5,169.2 299.5,210.2 307.5,210.2 307.5,169.2 323.6,169.2 323.6,161.4 "/>
</svg>
