<?xml version="1.0" encoding="utf-8"?>
<!-- Generator: Adobe Illustrator 23.1.1, SVG Export Plug-In . SVG Version: 6.00 Build 0)  -->
<svg version="1.1" id="Capa_1" xmlns="http://www.w3.org/2000/svg" xmlns:xlink="http://www.w3.org/1999/xlink" x="0px" y="0px"
	 viewBox="0 0 175.7 130.4" style="enable-background:new 0 0 175.7 130.4;" xml:space="preserve">
<style type="text/css">
	.st0{fill:#CC3333;}
	.st1{fill:#FFFFFF;}
</style>
<polygon class="st0" points="2.1,69.5 2.1,89.8 63.5,89.8 102.5,128.9 131.3,128.9 71.9,69.5 "/>
<path class="st0" d="M108.8,45.6L108.8,45.6c0,13.2-10.7,23.9-23.8,23.9l59.4,59.4h29.3L118,75c6.9-7.8,11.1-18,11.1-29.2v-0.2
	c0-24.3-19.8-44.1-44.1-44.1H2.1v20.3H85C98.1,21.8,108.8,32.5,108.8,45.6"/>
<path class="st1" d="M99.5,45.8L99.5,45.8c0-8-6.5-14.4-14.4-14.4h-83v28.8h83C93,60.2,99.5,53.8,99.5,45.8"/>
</svg>
